<?xml version="1.0" encoding="utf-8"?>
<!DOCTYPE svg PUBLIC "-//W3C//DTD SVG 1.0//EN" "http://www.w3.org/TR/2001/REC-SVG-20010904/DTD/svg10.dtd">
<svg version="1.0" xmlns="http://www.w3.org/2000/svg" width="380px" height="366px" viewBox="0 0 380 366" preserveAspectRatio="xMidYMid meet">
 <g fill="#ffffff">
  <path d="M0 183 l0 -183 190 0 190 0 0 183 0 183 -190 0 -190 0 0 -183z m226 154.4 c34.6 -5.6 64.6 -25.5 85.9 -56.9 9.2 -13.5 15.3 -29.3 18.6 -48 1.8 -10.3 3.9 -39 3 -40.5 -0.4 -0.6 -21 -1 -56.6 -1 l-55.9 0 0.2 17.2 0.3 17.3 32.5 -0.3 c17.9 -0.2 33.8 -0.1 35.4 0.4 l2.9 0.7 -0.6 7.1 c-2.5 31.5 -32.9 62.8 -67.9 70.1 -9.8 2 -32.5 2 -42.5 -0.1 -18.5 -3.8 -36.2 -13.5 -51.8 -28.5 -11.3 -10.9 -18.5 -20.5 -23.5 -31.4 -2.3 -5 -4.5 -9.8 -5 -10.7 -1.9 -3.4 -0.9 -13.1 5 -52.3 3.3 -21.8 6 -40 6 -40.5 0 -0.6 7.8 -1 19.9 -1 l19.9 0 0.6 -2.7 c0.7 -3.4 2.6 -15.5 2.6 -16.5 0 -0.5 -6.1 -0.8 -13.5 -0.8 l-13.5 0 0 -3.4 c0 -3.8 2.2 -6.1 13.1 -13.8 12.5 -8.8 22.7 -13.4 37.8 -16.9 11.1 -2.6 30 -3.5 41.6 -2 10.2 1.4 27 6.7 35.4 11.1 10.8 5.8 24 16.8 33.3 27.9 l3.7 4.4 10.8 -10 c5.9 -5.6 11.7 -11 12.8 -12.2 l1.9 -2.2 -8.9 -8.7 c-27.2 -26.4 -49.9 -38.5 -83.3 -44.2 -35.3 -6.1 -73.6 3.3 -104.9 25.7 -13.1 9.4 -29.2 25.6 -37 37.4 l-4.6 6.9 -13.8 0 c-15.7 0 -15.1 -0.3 -16.3 8.5 -0.4 2.8 -1 6.5 -1.3 8.3 l-0.5 3.2 9.6 0 9.6 0 0 2.9 c0 1.6 -0.5 4.2 -1 5.7 -4.8 12.6 -7.4 29.2 -7.3 47.4 0 12.7 0.5 17.7 2.6 27.5 6 28.4 19.3 52.9 40.1 74 23.4 23.6 50.4 37.8 79.1 41.4 5 0.6 10.4 1.3 12 1.5 5.2 0.7 23.6 -0.4 33.5 -2z m-50.5 -104.6 c0.4 -2.4 2.1 -14.2 3.8 -26.3 l3.2 -22 16.6 -0.3 16.7 -0.2 0.5 -3.3 c0.3 -1.7 0.9 -5.3 1.3 -7.9 l0.6 -4.8 -16.1 0 -16.1 0 0 -3.6 c0 -3.3 2.3 -20.6 3.6 -26.1 0.4 -2.3 0.5 -2.3 19.4 -2.3 21.8 0 20.3 0.7 21.5 -10.2 l0.7 -6.8 -31.5 0 c-17.4 0 -31.8 0.4 -32.1 0.9 -0.6 0.9 -5.1 30.6 -12.7 83.1 -2.1 15.1 -4.2 29 -4.5 30.8 l-0.6 3.2 12.5 0 12.6 0 0.6 -4.2z"/>
 </g>
 <g fill="#dc9d3f">
  <path d="M189.5 342.4 c-1.6 -0.2 -7 -0.9 -12 -1.5 -28.7 -3.6 -55.7 -17.8 -79.1 -41.4 -20.7 -21.1 -34 -45.5 -40.1 -74 -2.3 -10.4 -2.6 -14.5 -2.7 -30.5 0 -10.9 0.5 -21.6 1.3 -26 1.4 -7.9 4.3 -19.8 6 -24.3 0.9 -2.4 0.8 -2.7 -1 -2.7 -1.2 0 -1.9 -0.5 -1.7 -1.2 0.3 -0.9 4.1 -1.4 13.1 -1.6 l12.7 -0.3 0 4 c0 2.2 -2.9 23.9 -6.5 48.2 -3.6 24.3 -6.5 44.6 -6.5 45 0 0.5 5.6 0.9 12.4 0.9 l12.4 0 0.6 -3.1 c0.3 -1.7 0.6 -4.4 0.6 -6 0 -2.2 0.5 -2.9 2 -2.9 1.1 0 2 0.7 2 1.5 0 0.8 0.4 2.3 1 3.3 0.5 0.9 2.7 5.7 5 10.7 10.8 23.8 36.4 46.6 63.6 56.8 12.3 4.7 34.2 6.1 48.2 3.2 33.5 -7 63.1 -36.3 67.7 -66.9 l0.7 -4.5 -3.8 -0.7 c-2.1 -0.4 -17.9 -0.5 -35.1 -0.2 -20.4 0.4 -31.5 0.2 -31.9 -0.4 -0.4 -0.6 -0.7 -9.8 -0.7 -20.5 0 -15.4 -0.3 -19.6 -1.4 -20 -2 -0.8 -1.5 -3.3 0.7 -3.3 1.3 0 2 0.7 2 2 0 2 0.7 2 58.5 2 52.5 0 58.6 0.2 59.2 1.6 0.9 2.4 -1.4 35.6 -3.2 45.9 -4.3 24.5 -12.5 42 -28.9 61.7 -6 7.3 -18.9 18.7 -27.4 24.4 -13 8.7 -31.7 16.1 -48.1 18.8 -9.3 1.6 -33.8 2.8 -39.6 2z"/>
  <path d="M287 125.8 c-10.5 -12.3 -22.9 -22.8 -34.1 -28.8 -8.4 -4.4 -25.2 -9.7 -35.4 -11.1 -19.6 -2.6 -43.9 1.9 -61.5 11.4 -6.7 3.6 -20 13 -23.1 16.3 l-2.2 2.4 2.7 0 c2.4 0 2.7 0.2 1.6 1.5 -1.1 1.3 -5.8 1.5 -31.1 1.5 -25.9 0 -29.9 -0.2 -29.9 -1.5 0 -0.8 0.6 -1.5 1.4 -1.5 0.7 0 3.4 -3.1 5.9 -6.9 11 -16.6 32.7 -36.3 51.5 -46.8 27.9 -15.6 64.6 -21.8 96.4 -16.3 34.2 5.9 57.3 18.4 84.8 45.9 l10.4 10.4 -15.4 14.8 c-8.5 8.2 -15.8 14.9 -16.1 14.9 -0.3 0 -3 -2.8 -5.9 -6.2z"/>
 </g>
 <g fill="#203756">
  <path d="M69 239.6 c0 -0.2 3.2 -21.9 7 -48.1 3.8 -26.2 7 -48.1 7 -48.6 0 -0.5 -8.1 -0.9 -18.9 -0.9 -10.5 0 -19.2 -0.4 -19.5 -0.8 -0.6 -1 2.2 -20 3.4 -22.9 l1 -2.3 54.4 0 c30 0 54.7 0.3 54.9 0.8 0.3 0.4 -0.3 6.1 -1.4 12.7 -1 6.6 -1.8 12.1 -1.9 12.3 0 0.1 -9 0.2 -20 0.2 -12.1 0 -20 0.4 -20 1 0 0.5 -2.7 18.6 -5.9 40.2 -3.2 21.6 -6.2 41.6 -6.5 44.3 -0.4 2.8 -0.9 6.7 -1.2 8.8 l-0.6 3.7 -15.9 0 c-8.7 0 -15.9 -0.2 -15.9 -0.4z"/>
  <path d="M146.7 239.3 c-0.3 -0.5 0.4 -6.4 1.4 -13.3 1 -6.9 5 -34 8.9 -60.3 3.8 -26.4 7.3 -48.3 7.6 -48.8 0.8 -1.3 69.1 -1.2 69.9 0.2 0.8 1.2 -1.4 17.6 -2.7 20.2 -0.8 1.5 -2.8 1.7 -19.8 1.7 -18.9 0 -19 0 -19.4 2.2 -0.6 2.5 -3.6 22.2 -3.6 23.2 0 0.3 7.4 0.6 16.5 0.6 9.1 0 16.5 0.2 16.5 0.5 0 1.6 -3.1 21 -3.4 21.3 -0.2 0.2 -7.8 0.4 -16.8 0.5 l-16.3 0.2 -3.2 22 c-1.7 12.1 -3.4 23.9 -3.8 26.3 l-0.6 4.2 -15.4 0 c-8.5 0 -15.6 -0.3 -15.8 -0.7z"/>
 </g>
</svg>