<?xml version="1.0" encoding="UTF-8"?>
<svg version="1.1" xmlns="http://www.w3.org/2000/svg" width="329" height="89">
<path d="M0 0 C8.25 0 16.5 0 25 0 C27.03930704 5.43815211 28.96011008 10.78589598 30.6875 16.3125 C30.91244141 17.01439453 31.13738281 17.71628906 31.36914062 18.43945312 C32.29857902 21.40292084 33 23.87479546 33 27 C33.66 27 34.32 27 35 27 C35.08636719 26.46375 35.17273438 25.9275 35.26171875 25.375 C36.29856758 19.59147628 37.81372489 14.03858579 39.5625 8.4375 C39.78446045 7.72271484 40.0064209 7.00792969 40.23510742 6.27148438 C41.86912095 1.13087905 41.86912095 1.13087905 43 0 C51.25 0 59.5 0 68 0 C68 18.81 68 37.62 68 57 C62.72 57 57.44 57 52 57 C51.67 47.76 51.34 38.52 51 29 C50.04287109 31.90619141 50.04287109 31.90619141 49.06640625 34.87109375 C48.44772572 36.74103826 47.82902433 38.61097595 47.2097168 40.48071289 C46.77894911 41.78309049 46.34925775 43.08582458 45.9206543 44.38891602 C45.30538637 46.25890373 44.68595941 48.12752142 44.06640625 49.99609375 C43.69459229 51.12200928 43.32277832 52.2479248 42.93969727 53.40795898 C42 56 42 56 41 57 C36.05 57 31.1 57 26 57 C21.545 42.645 21.545 42.645 17 28 C16.67 37.57 16.34 47.14 16 57 C10.72 57 5.44 57 0 57 C0 38.19 0 19.38 0 0 Z " fill="#DC0C15" transform="translate(71,32)"/>
<path d="M0 0 C0.88171875 -0.01611328 1.7634375 -0.03222656 2.671875 -0.04882812 C11.31600793 -0.05516547 19.71606001 1.41110793 26.21875 7.484375 C28.70567417 10.71737643 29.70844268 14.3843972 30.625 18.3125 C27.77339609 19.12684143 25.25873869 19.43131242 22.296875 19.41015625 C21.49765625 19.40693359 20.6984375 19.40371094 19.875 19.40039062 C19.05 19.39201172 18.225 19.38363281 17.375 19.375 C16.53453125 19.37048828 15.6940625 19.36597656 14.828125 19.36132812 C12.76038599 19.34957961 10.69268376 19.33164522 8.625 19.3125 C8.18027344 18.10013672 8.18027344 18.10013672 7.7265625 16.86328125 C6.91914132 14.24160876 6.91914132 14.24160876 5 13.5 C-1.36599828 12.81372461 -1.36599828 12.81372461 -7.375 14.3125 C-7.045 15.6325 -6.715 16.9525 -6.375 18.3125 C-5.65957031 18.47331055 -4.94414062 18.63412109 -4.20703125 18.79980469 C-0.92717114 19.54339522 2.3488333 20.30280917 5.625 21.0625 C6.75035156 21.31515625 7.87570313 21.5678125 9.03515625 21.828125 C18.38340276 24.01484933 25.9248981 26.19417306 31.625 34.3125 C33.59507978 40.22273935 33.05033674 45.75726138 30.6640625 51.421875 C28.25378883 55.80748573 25.45608838 58.56631238 20.81640625 60.45703125 C14.80328729 62.01534283 8.47550896 61.64052395 2.3125 61.625 C1.04470703 61.64111328 -0.22308594 61.65722656 -1.52929688 61.67382812 C-11.45699964 61.67896935 -20.50451461 61.0477219 -27.96875 53.91796875 C-31.01629011 50.43869379 -32.306829 47.53957803 -32.5625 42.9375 C-32.500625 42.07125 -32.43875 41.205 -32.375 40.3125 C-25.34695301 39.45876761 -18.45221931 39.19140689 -11.375 39.3125 C-10.818125 40.42625 -10.26125 41.54 -9.6875 42.6875 C-8.25398535 45.16858305 -7.54324773 46.20791357 -5.0625 47.75 C-0.87009661 48.62747978 2.9061633 48.90052308 7 47.5 C8.94445624 46.31976269 8.94445624 46.31976269 9.625 43.3125 C7.04543377 39.44315065 4.53754357 39.29633526 0.25 38.375 C-1.20520371 38.03455268 -2.65963026 37.69076728 -4.11328125 37.34375 C-4.83467285 37.17230469 -5.55606445 37.00085938 -6.29931641 36.82421875 C-15.17608936 34.63582589 -23.96706172 32.36944068 -29.3125 24.4375 C-31.08732021 19.21744055 -30.98807206 15.79409081 -28.875 10.6875 C-25.1290447 4.81795736 -19.25768828 2.24873049 -12.65429688 0.70288086 C-8.44555024 -0.01796167 -4.26008585 -0.01543509 0 0 Z " fill="#DC0C14" transform="translate(32.375,27.6875)"/>
<path d="M0 0 C1.48831242 0.00667405 2.97660807 0.01863442 4.46484375 0.03515625 C5.22345703 0.03966797 5.98207031 0.04417969 6.76367188 0.04882812 C8.64326246 0.06064945 10.52281274 0.07858547 12.40234375 0.09765625 C13.24309593 3.51254117 14.07364368 6.92982838 14.90234375 10.34765625 C15.14082031 11.31574219 15.37929687 12.28382812 15.625 13.28125 C15.85058594 14.21582031 16.07617188 15.15039062 16.30859375 16.11328125 C16.51806641 16.97211914 16.72753906 17.83095703 16.94335938 18.71582031 C17.40234375 21.09765625 17.40234375 21.09765625 17.40234375 25.09765625 C18.06234375 25.09765625 18.72234375 25.09765625 19.40234375 25.09765625 C19.62921875 23.94265625 19.85609375 22.78765625 20.08984375 21.59765625 C21.69655955 14.29120411 24.12883943 7.21731451 26.40234375 0.09765625 C31.68234375 0.09765625 36.96234375 0.09765625 42.40234375 0.09765625 C41.73491939 4.76962676 41.20198675 8.19202884 39.72827148 12.48217773 C39.38799423 13.48268661 39.04771698 14.4831955 38.6971283 15.51402283 C38.33043533 16.57158279 37.96374237 17.62914276 37.5859375 18.71875 C37.02206078 20.36859642 37.02206078 20.36859642 36.4467926 22.05177307 C35.25029143 25.54825939 34.04520033 29.04171404 32.83984375 32.53515625 C32.02482119 34.91191419 31.21036173 37.28886529 30.39648438 39.66601562 C28.40495341 45.47882041 26.40571575 51.28892236 24.40234375 57.09765625 C18.46234375 57.09765625 12.52234375 57.09765625 6.40234375 57.09765625 C4.75234375 49.17765625 3.10234375 41.25765625 1.40234375 33.09765625 C-1.23765625 41.01765625 -3.87765625 48.93765625 -6.59765625 57.09765625 C-11.87765625 57.09765625 -17.15765625 57.09765625 -22.59765625 57.09765625 C-21.19619958 50.18398078 -19.23031579 43.63932238 -16.9375 36.97265625 C-16.58756485 35.94454834 -16.2376297 34.91644043 -15.87709045 33.85717773 C-15.14226745 31.7016942 -14.405126 29.54699978 -13.66577148 27.39306641 C-12.52969947 24.08175134 -11.40202029 20.76766311 -10.27539062 17.453125 C-9.55908421 15.35530122 -8.84230441 13.257639 -8.125 11.16015625 C-7.61718239 9.66814697 -7.61718239 9.66814697 -7.09910583 8.14599609 C-6.78530472 7.23414551 -6.4715036 6.32229492 -6.14819336 5.3828125 C-5.73421547 4.17443726 -5.73421547 4.17443726 -5.31187439 2.94165039 C-4.04326089 -0.33370167 -3.8711185 0.10507922 0 0 Z " fill="#1D1D1B" transform="translate(239.59765625,31.90234375)"/>
<path d="M0 0 C-0.28657394 1.54262145 -0.57953877 3.08405606 -0.875 4.625 C-1.03742188 5.48351563 -1.19984375 6.34203125 -1.3671875 7.2265625 C-2.0464046 10.20337818 -3.03445521 13.10336562 -4 16 C-11.92 16.33 -19.84 16.66 -28 17 C-28.33 17.66 -28.66 18.32 -29 19 C-21.41 19.33 -13.82 19.66 -6 20 C-7.875 31.625 -7.875 31.625 -9 35 C-17.58 35.33 -26.16 35.66 -35 36 C-35.99 38.475 -35.99 38.475 -37 41 C-24.13 41.495 -24.13 41.495 -11 42 C-12 51 -12 51 -14 57 C-28.52 57 -43.04 57 -58 57 C-52.73137486 39.978288 -47.43505999 22.9692709 -42 6 C-41.11683105 6.05220703 -41.11683105 6.05220703 -40.21582031 6.10546875 C-35.07079844 6.28223024 -32.11208781 5.96292757 -27.75 3 C-19.17840018 -1.75455928 -9.49305175 -0.52027687 0 0 Z " fill="#1D1D1B" transform="translate(327,32)"/>
<path d="M0 0 C5.61 0 11.22 0 17 0 C14.79813485 9.20650411 12.15626499 18.22614646 9.3125 27.25 C8.89226494 28.59234991 8.47234132 29.93479736 8.05273438 31.27734375 C7.03820169 34.51918381 6.01953134 37.7597285 5 41 C12.59 41.33 20.18 41.66 28 42 C26 51 26 51 23 57 C9.47 57 -4.06 57 -18 57 C-15.74979322 46.87406949 -15.74979322 46.87406949 -14.41186523 42.78735352 C-13.96646645 41.41662437 -13.96646645 41.41662437 -13.5120697 40.01820374 C-13.19742264 39.06473557 -12.88277557 38.1112674 -12.55859375 37.12890625 C-12.23085464 36.12536606 -11.90311554 35.12182587 -11.56544495 34.08787537 C-10.87740735 31.98379434 -10.18734967 29.88037291 -9.49536133 27.77758789 C-8.43311125 24.54916157 -7.37717596 21.31872185 -6.32226562 18.08789062 C-5.65140586 16.03894322 -4.9801945 13.9901109 -4.30859375 11.94140625 C-3.99192245 10.97376846 -3.67525116 10.00613068 -3.34898376 9.00917053 C-3.0552034 8.11741623 -2.76142303 7.22566193 -2.45874023 6.30688477 C-2.20051987 5.52128677 -1.9422995 4.73568878 -1.67625427 3.92628479 C-1 2 -1 2 0 0 Z " fill="#1D1D1B" transform="translate(167,32)"/>
<path d="M0 0 C4.1254176 2.16093303 6.16637842 4.99913526 7.625 9.375 C8.07831125 16.0613409 7.37194487 21.61251794 3.3359375 27.140625 C-0.92342551 31.83275751 -5.253193 33.17192389 -11.49755859 33.578125 C-15.22979167 33.68070115 -18.95391609 33.69690449 -22.6875 33.6875 C-23.95529297 33.70361328 -25.22308594 33.71972656 -26.52929688 33.73632812 C-36.45699964 33.74146935 -45.50451461 33.1102219 -52.96875 25.98046875 C-56.01629011 22.50119379 -57.306829 19.60207803 -57.5625 15 C-57.500625 14.13375 -57.43875 13.2675 -57.375 12.375 C-50.34695301 11.52126761 -43.45221931 11.25390689 -36.375 11.375 C-35.818125 12.48875 -35.26125 13.6025 -34.6875 14.75 C-33.25398535 17.23108305 -32.54324773 18.27041357 -30.0625 19.8125 C-25.87009661 20.68997978 -22.0938367 20.96302308 -18 19.5625 C-16.05554376 18.38226269 -16.05554376 18.38226269 -15.375 15.375 C-16.24983915 13.20784443 -16.24983915 13.20784443 -17.375 11.375 C-15.25206098 9.56003664 -13.12677875 7.74795406 -11 5.9375 C-10.39671875 5.42123047 -9.7934375 4.90496094 -9.171875 4.37304688 C-3.07507757 -0.80923094 -3.07507757 -0.80923094 0 0 Z " fill="#EF7A00" transform="translate(57.375,55.625)"/>
<path d="M0 0 C0.66 0.66 1.32 1.32 2 2 C1.71582003 8.53613929 -0.49042158 14.99595201 -3 21 C-3.99 21.495 -3.99 21.495 -5 22 C-5.66 21.67 -6.32 21.34 -7 21 C-10.84583161 20.54087684 -12.52200731 20.67977175 -15.78125 22.86328125 C-17.12703125 24.07564453 -17.12703125 24.07564453 -18.5 25.3125 C-24.44398102 30.61596583 -29.3981091 33.76480052 -37.4765625 33.55859375 C-41.34654245 32.70192636 -43.4388519 30.49052036 -46.19921875 27.7578125 C-49.8075372 24.23559275 -52.89140449 23.05364172 -57.875 22.8125 C-59.421875 22.9053125 -59.421875 22.9053125 -61 23 C-59.56006454 15.27670981 -56.94467554 8.2717751 -54 1 C-44.44254951 0.23540396 -40.04659557 4.07445373 -33 10 C-29.43553392 11.78223304 -25.76503432 10.96028869 -22 10 C-17.69284155 7.74552611 -13.99560413 4.92275505 -10.4375 1.625 C-6.80000077 -0.79999949 -4.31872268 -0.42479239 0 0 Z " fill="#3056A3" transform="translate(326,0)"/>
<path d="M0 0 C8.25 0 16.5 0 25 0 C26.79582712 4.78887231 28.56319769 9.53320997 30.1875 14.375 C30.53167969 15.39335938 30.87585938 16.41171875 31.23046875 17.4609375 C32 20 32 20 32 22 C31.16855469 22.20496094 30.33710937 22.40992187 29.48046875 22.62109375 C28.39378906 22.89050781 27.30710937 23.15992187 26.1875 23.4375 C25.10855469 23.70433594 24.02960938 23.97117187 22.91796875 24.24609375 C20.9259157 24.76077412 18.95188476 25.34937175 17 26 C16.67 36.23 16.34 46.46 16 57 C10.72 57 5.44 57 0 57 C0 38.19 0 19.38 0 0 Z " fill="#DC0C14" transform="translate(71,32)"/>
<path d="M0 0 C5.61 0 11.22 0 17 0 C15.68574965 7.22040558 13.86129001 14.04090977 11.55859375 21.00390625 C11.23085464 22.00840317 10.90311554 23.01290009 10.56544495 24.0478363 C9.87813266 26.15037493 9.18806942 28.25201612 8.49536133 30.3527832 C7.43087081 33.582614 6.37593116 36.81545163 5.32226562 40.04882812 C4.65159572 42.09653571 3.98039123 44.14406831 3.30859375 46.19140625 C2.99192245 47.16106827 2.67525116 48.13073029 2.34898376 49.129776 C2.0552034 50.01837814 1.76142303 50.90698029 1.45874023 51.82250977 C1.20051987 52.60731216 0.9422995 53.39211456 0.67625427 54.20069885 C0 56 0 56 -1 57 C-3.86267567 57.07325168 -6.700719 57.09238205 -9.5625 57.0625 C-10.36880859 57.05798828 -11.17511719 57.05347656 -12.00585938 57.04882812 C-14.00393756 57.03700518 -16.00197783 57.01906914 -18 57 C-12.20637176 37.93114979 -6.15804175 18.9536449 0 0 Z " fill="#1D1D1B" transform="translate(212,32)"/>
<path d="M0 0 C8.25 0 16.5 0 25 0 C25 5.94 25 11.88 25 18 C22.77443359 18.09087891 22.77443359 18.09087891 20.50390625 18.18359375 C18.52343066 18.26806901 16.54296228 18.35271344 14.5625 18.4375 C13.58861328 18.47681641 12.61472656 18.51613281 11.61132812 18.55664062 C5.69938401 18.81368167 -0.12645997 19.27719621 -6 20 C-4.73998072 12.64988752 -2.8905181 7.22629526 0 0 Z " fill="#DC0F14" transform="translate(114,32)"/>
<path d="M0 0 C0 9.9 0 19.8 0 30 C-5.28 30 -10.56 30 -16 30 C-16 22.08 -16 14.16 -16 6 C-3.375 0 -3.375 0 0 0 Z " fill="#DC0C15" transform="translate(87,59)"/>
<path d="M0 0 C0.556875 1.11375 1.11375 2.2275 1.6875 3.375 C3.25326802 6.15297552 3.81895484 6.90536276 6.75 8.4375 C7.4925 8.623125 8.235 8.80875 9 9 C5.562994 13.93135644 1.26946157 18.0834559 -4 21 C-9.94120315 20.69269639 -14.07869183 17.25568328 -18 13 C-20.67972902 8.85074216 -21.35095299 5.91334183 -21 1 C-13.97195301 0.14626761 -7.07721931 -0.12109311 0 0 Z " fill="#DC0E14" transform="translate(21,67)"/>
<path d="M0 0 C0.33 1.65 0.66 3.3 1 5 C0.01386719 5.185625 0.01386719 5.185625 -0.9921875 5.375 C-8.84666504 7.07786776 -15.7614418 9.9250126 -23.03076172 13.30664062 C-23.77600098 13.65275391 -24.52124023 13.99886719 -25.2890625 14.35546875 C-25.95631348 14.67153076 -26.62356445 14.98759277 -27.31103516 15.31323242 C-29 16 -29 16 -31 16 C-31 12.37 -31 8.74 -31 5 C-28.1685963 4.18022393 -25.33517098 3.36905726 -22.5 2.5625 C-21.70851563 2.33240234 -20.91703125 2.10230469 -20.1015625 1.86523438 C-6.7712307 -1.90440863 -6.7712307 -1.90440863 0 0 Z " fill="#F5A237" transform="translate(102,49)"/>
<path d="M0 0 C-0.8334974 7.34838528 -3.28700222 12.21185227 -9 17 C-14.96925031 19.80905897 -21.52437067 19.19139791 -28 19 C-24.33030266 15.1295079 -20.48543518 11.99737154 -16.125 8.9375 C-15.53847656 8.51662109 -14.95195313 8.09574219 -14.34765625 7.66210938 C-3.53754845 0 -3.53754845 0 0 0 Z " fill="#DC0E16" transform="translate(65,70)"/>
<path d="M0 0 C0.495 3.96 0.495 3.96 1 8 C-0.39798828 8.80050781 -0.39798828 8.80050781 -1.82421875 9.6171875 C-9.78365231 14.24933409 -16.99640746 19.1375517 -24 25.12890625 C-27.601921 27.37541687 -29.83052316 27.37004107 -34 27 C-30.86466472 23.79226799 -27.67859943 20.81487072 -24.1875 18 C-23.24390625 17.23816406 -22.3003125 16.47632812 -21.328125 15.69140625 C-20.80669922 15.27133301 -20.28527344 14.85125977 -19.74804688 14.41845703 C-17.75400124 12.80038368 -15.77524681 11.16454007 -13.796875 9.52734375 C-12.34377821 8.33069491 -10.89065333 7.13408018 -9.4375 5.9375 C-8.73455811 5.35291016 -8.03161621 4.76832031 -7.30737305 4.16601562 C-6.64777588 3.62525391 -5.98817871 3.08449219 -5.30859375 2.52734375 C-4.71876709 2.03999756 -4.12894043 1.55265137 -3.52124023 1.05053711 C-2 0 -2 0 0 0 Z " fill="#F5A02B" transform="translate(64,62)"/>
<path d="M0 0 C0 2.64 0 5.28 0 8 C-0.61931396 8.02505615 -1.23862793 8.0501123 -1.87670898 8.07592773 C-4.73044888 8.19322658 -7.58396441 8.31533586 -10.4375 8.4375 C-11.89833008 8.49647461 -11.89833008 8.49647461 -13.38867188 8.55664062 C-19.30061599 8.81368167 -25.12645997 9.27719621 -31 10 C-30.67 8.35 -30.34 6.7 -30 5 C-28.87972412 4.82609741 -28.87972412 4.82609741 -27.73681641 4.64868164 C-24.3656636 4.12339923 -20.99533308 3.59301539 -17.625 3.0625 C-16.449375 2.88009766 -15.27375 2.69769531 -14.0625 2.50976562 C-12.38027344 2.24389648 -12.38027344 2.24389648 -10.6640625 1.97265625 C-9.10872803 1.72914429 -9.10872803 1.72914429 -7.52197266 1.48071289 C-4.61321416 0.9262748 -3.02631726 0 0 0 Z " fill="#F49A26" transform="translate(139,42)"/>
<path d="M0 0 C2.625 0.9375 2.625 0.9375 5 2 C3.56556943 6.30329171 0.63527805 7.97246458 -2.875 10.6875 C-3.51308594 11.19861328 -4.15117188 11.70972656 -4.80859375 12.23632812 C-5.42605469 12.71908203 -6.04351562 13.20183594 -6.6796875 13.69921875 C-7.52635986 14.36183716 -7.52635986 14.36183716 -8.39013672 15.0378418 C-10 16 -10 16 -13 16 C-13.66 14.68 -14.32 13.36 -15 12 C-12.87706098 10.18503664 -10.75177875 8.37295406 -8.625 6.5625 C-8.02171875 6.04623047 -7.4184375 5.52996094 -6.796875 4.99804688 C-2.2265625 1.11328125 -2.2265625 1.11328125 0 0 Z " fill="#EB6208" transform="translate(55,55)"/>
<path d="M0 0 C0 0.66 0 1.32 0 2 C-20.60955056 6.84550562 -20.60955056 6.84550562 -31 8 C-31 7.01 -31 6.02 -31 5 C-28.1685963 4.18022393 -25.33517098 3.36905726 -22.5 2.5625 C-21.70851563 2.33240234 -20.91703125 2.10230469 -20.1015625 1.86523438 C-6.7712307 -1.90440863 -6.7712307 -1.90440863 0 0 Z " fill="#F28E06" transform="translate(102,49)"/>
<path d="M0 0 C0.41796875 2.23828125 0.41796875 2.23828125 0 5 C-2.23698198 6.6676809 -4.24107068 7.90612181 -6.6875 9.1875 C-12.89266092 12.6316762 -18.43891383 16.42359593 -23.8737793 20.98901367 C-25.390625 22.2265625 -25.390625 22.2265625 -28 24 C-28.99 23.67 -29.98 23.34 -31 23 C-30.21238281 22.40574219 -29.42476562 21.81148437 -28.61328125 21.19921875 C-21.9911034 16.17054731 -15.52799682 11.00887365 -9.2277832 5.58081055 C-2.73577813 0 -2.73577813 0 0 0 Z " fill="#F8B462" transform="translate(65,65)"/>
<path d="M0 0 C0 3 0 3 -1.33837891 4.45117188 C-1.96147949 4.95197266 -2.58458008 5.45277344 -3.2265625 5.96875 C-3.92241455 6.53505127 -4.6182666 7.10135254 -5.33520508 7.68481445 C-6.0908374 8.28382568 -6.84646973 8.88283691 -7.625 9.5 C-8.39030029 10.11641357 -9.15560059 10.73282715 -9.9440918 11.36791992 C-11.52136683 12.6353935 -13.10205194 13.89863463 -14.68603516 15.15771484 C-16.83648424 16.86981537 -18.97275523 18.59792644 -21.10546875 20.33203125 C-22.3404637 21.32636865 -23.57610407 22.31990516 -24.8125 23.3125 C-25.37984863 23.77398437 -25.94719727 24.23546875 -26.53173828 24.7109375 C-29.26327529 26.87433466 -31.48751771 28.54924561 -35 29 C-34 26 -34 26 -32.125 25 C-31.42375 24.67 -30.7225 24.34 -30 24 C-28.41666667 22.58333333 -28.41666667 22.58333333 -27 21 C-24.82012408 18.63056966 -22.86404827 17.43202413 -20 16 C-18.97803008 15.02246356 -17.98020375 14.0194119 -17 13 C-15.34614767 11.65080468 -13.678298 10.31866272 -12 9 C-11.175 8.34 -10.35 7.68 -9.5 7 C-8.675 6.34 -7.85 5.68 -7 5 C-6.113125 4.278125 -5.22625 3.55625 -4.3125 2.8125 C-2 1 -2 1 0 0 Z " fill="#F28C01" transform="translate(62,60)"/>
<path d="M0 0 C0 0.99 0 1.98 0 3 C-6.66695778 5.59322095 -12.95165028 6.64812448 -20.0625 7.1875 C-21.02349609 7.26935547 -21.98449219 7.35121094 -22.97460938 7.43554688 C-25.31577773 7.63355614 -27.65727632 7.82151592 -30 8 C-30 7.34 -30 6.68 -30 6 C-26.12796701 4.98826657 -22.25194898 3.99271358 -18.375 3 C-17.28058594 2.71382812 -16.18617187 2.42765625 -15.05859375 2.1328125 C-13.99511719 1.86210938 -12.93164062 1.59140625 -11.8359375 1.3125 C-10.86188965 1.06113281 -9.8878418 0.80976562 -8.88427734 0.55078125 C-5.8572084 -0.02726747 -3.0743018 -0.09569811 0 0 Z " fill="#ED6D05" transform="translate(139,39)"/>
<path d="M0 0 C0 1.65 0 3.3 0 5 C-7.59 5 -15.18 5 -23 5 C-16.36165917 0.57443945 -7.84656376 -0.24520512 0 0 Z " fill="#F8B666" transform="translate(139,45)"/>
<path d="M0 0 C-3.85010979 4.89372929 -7.58536098 8.84966457 -13 12 C-15.9375 11.8125 -15.9375 11.8125 -18 11 C-16.35538837 9.30555166 -14.69256061 7.64578129 -13 6 C-12.16855469 5.17435547 -12.16855469 5.17435547 -11.3203125 4.33203125 C-7.56609026 0.81974778 -5.3929398 -0.7892107 0 0 Z " fill="#EA5A0A" transform="translate(35,77)"/>
<path d="M0 0 C-3.38263104 2.8301913 -7.09118459 4.5032781 -11.125 6.1875 C-11.75792969 6.46013672 -12.39085938 6.73277344 -13.04296875 7.01367188 C-17.7324953 9 -17.7324953 9 -20 9 C-20 7.02 -20 5.04 -20 3 C-13.19925959 1.09579269 -7.08076251 -0.40850553 0 0 Z " fill="#F8B261" transform="translate(91,56)"/>
<path d="M0 0 C0 0.66 0 1.32 0 2 C-0.70382813 2.09796875 -1.40765625 2.1959375 -2.1328125 2.296875 C-9.28667944 3.38022822 -16.05569912 5.06223149 -22.96875 7.1953125 C-26 8 -26 8 -30 8 C-30 7.34 -30 6.68 -30 6 C-21.51597914 1.24318248 -9.65001621 -0.30156301 0 0 Z " fill="#E54310" transform="translate(101,46)"/>
<path d="M0 0 C0.99 0.33 1.98 0.66 3 1 C-0.17121469 4.38262901 -3.56193539 7.40577949 -7.125 10.375 C-7.97320312 11.08398438 -8.82140625 11.79296875 -9.6953125 12.5234375 C-10.45585938 13.01070312 -11.21640625 13.49796875 -12 14 C-12.99 13.67 -13.98 13.34 -15 13 C-11.82878531 9.61737099 -8.43806461 6.59422051 -4.875 3.625 C-4.02679688 2.91601562 -3.17859375 2.20703125 -2.3046875 1.4765625 C-1.54414062 0.98929688 -0.78359375 0.50203125 0 0 Z " fill="#E43F10" transform="translate(55,55)"/>
<path d="M0 0 C0 0.33 0 0.66 0 1 C-1.30324219 1.18175781 -1.30324219 1.18175781 -2.6328125 1.3671875 C-3.78523438 1.53476562 -4.93765625 1.70234375 -6.125 1.875 C-7.26195313 2.03742187 -8.39890625 2.19984375 -9.5703125 2.3671875 C-12.99494779 2.91526503 -12.99494779 2.91526503 -16.15625 4.0625 C-19.97392873 5.32107541 -23.00618832 5.13771764 -27 5 C-19.14761515 0.83967683 -8.7934374 -2.47315427 0 0 Z " fill="#ED6F04" transform="translate(102,49)"/>
<path d="M0 0 C-3.49835604 2.33223736 -6.91404733 3.15245549 -10.9375 4.125 C-11.65357422 4.30675781 -12.36964844 4.48851562 -13.10742188 4.67578125 C-16.53535554 5.52085109 -19.44772031 6 -23 6 C-23 5.34 -23 4.68 -23 4 C-7.25512528 -0.59225513 -7.25512528 -0.59225513 0 0 Z " fill="#E43C11" transform="translate(133,39)"/>
<path d="M0 0 C2.0625 0.4375 2.0625 0.4375 4 1 C3.25234375 1.54269531 2.5046875 2.08539063 1.734375 2.64453125 C0.74953125 3.35996094 -0.2353125 4.07539062 -1.25 4.8125 C-2.22453125 5.52019531 -3.1990625 6.22789063 -4.203125 6.95703125 C-5.8979155 8.19498576 -7.56477771 9.47437265 -9.171875 10.82421875 C-10.07679687 11.40623047 -10.07679687 11.40623047 -11 12 C-11.99 11.67 -12.98 11.34 -14 11 C-13.07316406 10.28972656 -12.14632812 9.57945313 -11.19140625 8.84765625 C-9.98174158 7.91930895 -8.77210776 6.99092145 -7.5625 6.0625 C-6.95083984 5.59392578 -6.33917969 5.12535156 -5.70898438 4.64257812 C-2.75031115 2.44328176 -2.75031115 2.44328176 0 0 Z " fill="#F7A955" transform="translate(48,77)"/>
<path d="M0 0 C0 0.99 0 1.98 0 3 C-5.61 3.66 -11.22 4.32 -17 5 C-17 4.34 -17 3.68 -17 3 C-16.15695313 2.86722656 -15.31390625 2.73445313 -14.4453125 2.59765625 C-13.34960938 2.42105469 -12.25390625 2.24445312 -11.125 2.0625 C-9.48917969 1.80146484 -9.48917969 1.80146484 -7.8203125 1.53515625 C-4.8100856 0.96396361 -3.09556571 0 0 0 Z " fill="#F6A333" transform="translate(139,42)"/>
<path d="M0 0 C0 0.66 0 1.32 0 2 C-1.28913487 2.67154933 -2.58140204 3.33708859 -3.875 4 C-4.59429687 4.37125 -5.31359375 4.7425 -6.0546875 5.125 C-8 6 -8 6 -10 6 C-10 4.68 -10 3.36 -10 2 C-8.7090864 1.66376204 -7.41723903 1.33110751 -6.125 1 C-5.40570313 0.814375 -4.68640625 0.62875 -3.9453125 0.4375 C-2 0 -2 0 0 0 Z " fill="#FBC68D" transform="translate(81,59)"/>
<path d="M0 0 C1.65 0 3.3 0 5 0 C5 0.66 5 1.32 5 2 C3.58603098 2.50757862 2.16868271 3.00574925 0.75 3.5 C-0.43335938 3.91765625 -0.43335938 3.91765625 -1.640625 4.34375 C-4 5 -4 5 -8 5 C-8 4.34 -8 3.68 -8 3 C-5.36 2.67 -2.72 2.34 0 2 C0 1.34 0 0.68 0 0 Z " fill="#F28B06" transform="translate(134,40)"/>
<path d="M0 0 C3.96 0 7.92 0 12 0 C7.60171741 2.1991413 4.81449408 2.51855059 0 3 C0 2.01 0 1.02 0 0 Z " fill="#F08101" transform="translate(71,54)"/>
<path d="M0 0 C0 0.99 0 1.98 0 3 C-2.875 3.125 -2.875 3.125 -6 3 C-6.66 2.34 -7.32 1.68 -8 1 C-5.07175348 0.02391783 -3.04386724 -0.08226668 0 0 Z " fill="#FBCE98" transform="translate(139,47)"/>
</svg>
