<?xml version="1.0" encoding="UTF-8"?>
<svg version="1.1" xmlns="http://www.w3.org/2000/svg" width="266" height="50">
<path d="M0 0 C11.55 0 23.1 0 35 0 C35 13.2 35 26.4 35 40 C23.45 40 11.9 40 0 40 C0 26.8 0 13.6 0 0 Z M30 10 C24.38188504 16.5103111 24.38188504 16.5103111 22.5625 24.625 C22.706875 25.73875 22.85125 26.8525 23 28 C23.66 27.67 24.32 27.34 25 27 C25.33 29.97 25.66 32.94 26 36 C27.65 36 29.3 36 31 36 C31 27.42 31 18.84 31 10 C30.67 10 30.34 10 30 10 Z M5 11 C5 19.25 5 27.5 5 36 C6.32 36 7.64 36 9 36 C9 32.7 9 29.4 9 26 C9.99 26.33 10.98 26.66 12 27 C12.5750936 21.63245971 12.34522494 18.88741281 9.0625 14.5 C7.49825323 12.52029885 7.49825323 12.52029885 6 11 C5.67 11 5.34 11 5 11 Z " fill="#F81E1C" transform="translate(5,5)"/>
<path d="M0 0 C2.31 0 4.62 0 7 0 C9.64 7.26 12.28 14.52 15 22 C15.33 14.74 15.66 7.48 16 0 C18.64 0 21.28 0 24 0 C26.97 5.28 29.94 10.56 33 16 C33.33 10.72 33.66 5.44 34 0 C36.31 0 38.62 0 41 0 C41 9.24 41 18.48 41 28 C38.03 28 35.06 28 32 28 C29.03 22.72 26.06 17.44 23 12 C22.67 17.28 22.34 22.56 22 28 C18.04 28 14.08 28 10 28 C9.34 26.35 8.68 24.7 8 23 C5.03 22.67 2.06 22.34 -1 22 C-1.66 23.98 -2.32 25.96 -3 28 C-4.98 28 -6.96 28 -9 28 C-7.67554915 21.37105659 -5.78331885 15.24709958 -3.375 8.9375 C-2.88773437 7.6390918 -2.88773437 7.6390918 -2.390625 6.31445312 C-1.59908318 4.20755504 -0.80216278 2.10287198 0 0 Z M3 9 C2.34 11.64 1.68 14.28 1 17 C2.65 17 4.3 17 6 17 C5.34 14.36 4.68 11.72 4 9 C3.67 9 3.34 9 3 9 Z " fill="#FF3737" transform="translate(83,11)"/>
<path d="M0 0 C2.97 0 5.94 0 9 0 C10.98 5.94 12.96 11.88 15 18 C16.98 12.06 18.96 6.12 21 0 C23.97 0 26.94 0 30 0 C30 9.24 30 18.48 30 28 C28.02 28 26.04 28 24 28 C23.67 24.04 23.34 20.08 23 16 C21.68 19.96 20.36 23.92 19 28 C16.69 28 14.38 28 12 28 C11.35309078 26.3962669 10.70751236 24.79199694 10.0625 23.1875 C9.70285156 22.29417969 9.34320313 21.40085937 8.97265625 20.48046875 C8.26386514 18.6729091 7.6139753 16.84192591 7 15 C6.67 19.29 6.34 23.58 6 28 C4.02 28 2.04 28 0 28 C0 18.76 0 9.52 0 0 Z " fill="#FF4141" transform="translate(164,11)"/>
<path d="M0 0 C0.74507812 0.00451172 1.49015625 0.00902344 2.2578125 0.01367188 C4.0885764 0.02540754 5.91929873 0.0433415 7.75 0.0625 C7.75 2.0425 7.75 4.0225 7.75 6.0625 C6.16058594 6.15337891 6.16058594 6.15337891 4.5390625 6.24609375 C3.15102779 6.33050127 1.76300768 6.41514917 0.375 6.5 C-0.32367188 6.53931641 -1.02234375 6.57863281 -1.7421875 6.61914062 C-5.62360492 6.80530134 -5.62360492 6.80530134 -9.25 8.0625 C-10.86958034 12.92124101 -10.48157217 17.13621134 -9.25 22.0625 C-5.95 22.3925 -2.65 22.7225 0.75 23.0625 C0.75 21.0825 0.75 19.1025 0.75 17.0625 C-1.89 17.0625 -4.53 17.0625 -7.25 17.0625 C-7.25 15.0825 -7.25 13.1025 -7.25 11.0625 C-2.3 11.0625 2.65 11.0625 7.75 11.0625 C7.75 16.6725 7.75 22.2825 7.75 28.0625 C4.68654856 28.17072792 1.6269399 28.24991479 -1.4375 28.3125 C-2.30181641 28.34601562 -3.16613281 28.37953125 -4.05664062 28.4140625 C-8.29949465 28.47908708 -10.60102272 28.46560187 -14.28125 26.1796875 C-18.39505333 21.75571646 -18.68274609 17.35396901 -18.578125 11.50390625 C-17.96865144 6.96913277 -15.37734556 4.18984556 -12.25 1.0625 C-8.23212483 -0.25889512 -4.18259204 -0.0480333 0 0 Z " fill="#FF4040" transform="translate(252.25,10.9375)"/>
<path d="M0 0 C1.03253906 0.01353516 1.03253906 0.01353516 2.0859375 0.02734375 C3.76577838 0.05067487 5.44543746 0.08653674 7.125 0.125 C7.125 2.105 7.125 4.085 7.125 6.125 C5.53558594 6.18107422 5.53558594 6.18107422 3.9140625 6.23828125 C2.52600576 6.30393258 1.13798651 6.37038021 -0.25 6.4375 C-0.94867188 6.46005859 -1.64734375 6.48261719 -2.3671875 6.50585938 C-4.64788941 6.59484296 -4.64788941 6.59484296 -7.875 7.125 C-9.95633467 10.247002 -10.1487822 11.05766989 -10.125 14.625 C-10.13015625 15.3984375 -10.1353125 16.171875 -10.140625 16.96875 C-10.00238062 19.42013844 -10.00238062 19.42013844 -7.875 22.125 C-5.68045319 22.70493699 -5.68045319 22.70493699 -3.25 22.8125 C-2.43273437 22.87824219 -1.61546875 22.94398437 -0.7734375 23.01171875 C-0.14695313 23.04910156 0.47953125 23.08648437 1.125 23.125 C1.125 21.145 1.125 19.165 1.125 17.125 C-1.515 17.125 -4.155 17.125 -6.875 17.125 C-6.875 15.145 -6.875 13.165 -6.875 11.125 C-1.925 11.125 3.025 11.125 8.125 11.125 C8.125 16.735 8.125 22.345 8.125 28.125 C4.89442783 28.26023325 1.6695331 28.35921546 -1.5625 28.4375 C-2.93051758 28.5003418 -2.93051758 28.5003418 -4.32617188 28.56445312 C-8.98057937 28.64907872 -11.14385385 28.67822465 -14.95703125 25.79296875 C-18.82246669 20.41599848 -18.47457617 14.5176642 -17.875 8.125 C-16.12860968 4.22920621 -15.13473594 2.66594543 -11.21875 0.984375 C-7.41843222 0.00765781 -3.88892635 -0.09797683 0 0 Z " fill="#FF3F3F" transform="translate(142.875,10.875)"/>
<path d="M0 0 C2.64 0 5.28 0 8 0 C10.97 5.28 13.94 10.56 17 16 C17.33 10.72 17.66 5.44 18 0 C19.98 0 21.96 0 24 0 C24 9.24 24 18.48 24 28 C21.36 28 18.72 28 16 28 C13.03 22.72 10.06 17.44 7 12 C6.67 17.28 6.34 22.56 6 28 C4.02 28 2.04 28 0 28 C0 18.76 0 9.52 0 0 Z " fill="#FF3434" transform="translate(209,11)"/>
<path d="M0 0 C2.31 0 4.62 0 7 0 C8.50801568 3.93447709 10.00502914 7.87304977 11.5 11.8125 C11.92925781 12.93205078 12.35851562 14.05160156 12.80078125 15.20507812 C13.20683594 16.27822266 13.61289063 17.35136719 14.03125 18.45703125 C14.40830078 19.44678955 14.78535156 20.43654785 15.17382812 21.45629883 C16 24 16 24 16 27 C17.65 27 19.3 27 21 27 C21 20.73 21 14.46 21 8 C21.66 8.33 22.32 8.66 23 9 C22.67 15.27 22.34 21.54 22 28 C18.04 28 14.08 28 10 28 C9.34 26.35 8.68 24.7 8 23 C5.03 22.67 2.06 22.34 -1 22 C-1.66 23.98 -2.32 25.96 -3 28 C-4.98 28 -6.96 28 -9 28 C-7.67554915 21.37105659 -5.78331885 15.24709958 -3.375 8.9375 C-2.88773437 7.6390918 -2.88773437 7.6390918 -2.390625 6.31445312 C-1.59908318 4.20755504 -0.80216278 2.10287198 0 0 Z M3 9 C2.34 11.64 1.68 14.28 1 17 C2.65 17 4.3 17 6 17 C5.34 14.36 4.68 11.72 4 9 C3.67 9 3.34 9 3 9 Z " fill="#FF4040" transform="translate(83,11)"/>
<path d="M0 0 C3.125 -0.5625 3.125 -0.5625 7 0 C9.46527449 2.74335318 11.2476366 5.76486756 13 9 C13.35191406 8.3503125 13.70382813 7.700625 14.06640625 7.03125 C15.57377142 4.48092982 17.01794362 2.2056289 19 0 C22.875 -0.5625 22.875 -0.5625 26 0 C24.63212924 3.84241082 22.81878267 6.76648662 20.4375 10.0625 C16.57480396 15.94469688 15.9152325 21.06117488 16 28 C14.02 28 12.04 28 10 28 C10.03222656 27.36835937 10.06445312 26.73671875 10.09765625 26.0859375 C9.98787145 17.62030944 6.66009676 12.63420961 1.93359375 5.96875 C0 3 0 3 0 0 Z " fill="#FF3C3C" transform="translate(51,11)"/>
<path d="M0 0 C2.5625 -0.5625 2.5625 -0.5625 6 0 C8.69200266 2.75648176 10.85727677 5.8049334 13 9 C13.43570312 8.3503125 13.87140625 7.700625 14.3203125 7.03125 C16.10628846 4.52624476 17.84929345 2.20222048 20 0 C23.4375 -0.5625 23.4375 -0.5625 26 0 C22.42073723 6.4956991 22.42073723 6.4956991 20.76831055 8.47631836 C16.81308403 13.35459649 16.232347 17.2535976 16.1875 23.4375 C16.16236328 24.26443359 16.13722656 25.09136719 16.11132812 25.94335938 C16.05299349 27.9617378 16.02350257 29.98091555 16 32 C14.02 32 12.04 32 10 32 C10.03222656 30.92363281 10.06445312 29.84726562 10.09765625 28.73828125 C10.11526371 18.52243571 8.40083175 12.38761142 1.93359375 4.44140625 C0 2 0 2 0 0 Z " fill="#1C2D88" transform="translate(10,8)"/>
<path d="M0 0 C2.31 0 4.62 0 7 0 C7 9.24 7 18.48 7 28 C4.69 28 2.38 28 0 28 C0 18.76 0 9.52 0 0 Z " fill="#FF3939" transform="translate(198,11)"/>
<path d="M0 0 C0.99 0 1.98 0 3 0 C3 9.24 3 18.48 3 28 C2.67 28 2.34 28 2 28 C1.67 20.08 1.34 12.16 1 4 C-0.98 6.64 -2.96 9.28 -5 12 C-5.99 11.67 -6.98 11.34 -8 11 C-6.60366572 6.55711819 -4.39598172 4.13475236 -1 1 C-0.67 0.67 -0.34 0.34 0 0 Z " fill="#F63F3F" transform="translate(34,13)"/>
</svg>
